<svg width="15" height="17" viewBox="0 0 15 17" fill="none" xmlns="http://www.w3.org/2000/svg">
<path d="M5.5058 9.41763C5.44316 9.41763 4.06497 9.41763 3.43852 9.41763C3.10441 9.41763 3 9.29234 3 8.97912C3 8.14385 3 7.2877 3 6.45244C3 6.11833 3.12529 6.01392 3.43852 6.01392H5.5058C5.5058 5.95128 5.5058 4.74014 5.5058 4.17633C5.5058 3.34107 5.65197 2.54756 6.06961 1.81671C6.50812 1.06497 7.13457 0.563805 7.92807 0.271462C8.45012 0.0835265 8.97216 0 9.53596 0H11.5824C11.8747 0 12 0.12529 12 0.417633V2.79814C12 3.09049 11.8747 3.21578 11.5824 3.21578C11.0186 3.21578 10.4548 3.21578 9.89095 3.23666C9.32715 3.23666 9.0348 3.50812 9.0348 4.09281C9.01392 4.71926 9.0348 5.32483 9.0348 5.97216H11.4571C11.7912 5.97216 11.9165 6.09745 11.9165 6.43156V8.95824C11.9165 9.29234 11.8121 9.39675 11.4571 9.39675C10.7053 9.39675 9.09745 9.39675 9.0348 9.39675V16.2042C9.0348 16.5592 8.93039 16.6845 8.55452 16.6845C7.67749 16.6845 6.82135 16.6845 5.94432 16.6845C5.63109 16.6845 5.5058 16.5592 5.5058 16.2459C5.5058 14.0534 5.5058 9.48028 5.5058 9.41763V9.41763Z" fill="#F7F7EE"/>
</svg>
