<svg width="37" height="29" viewBox="0 0 37 29" fill="none" xmlns="http://www.w3.org/2000/svg">
<path d="M16.8467 3.1875C17.7864 2.33081 19.2136 2.33081 20.1533 3.1875L36.2344 18.0996C36.7215 18.5452 37 19.1623 37 19.8135V26.6348C37 28.6915 34.4934 29.7541 32.9619 28.3486L20.1533 16.4883C19.2135 15.6313 17.7865 15.6313 16.8467 16.4883L4.03809 28.3486C2.50657 29.7883 1.08457e-05 28.6915 0 26.6348V19.8135C0 19.1623 0.278467 18.5452 0.765625 18.0996L16.8467 3.1875Z" fill="white"/>
<path d="M9.71094 0C11.9038 0 12.9478 2.60511 11.3467 4.0791L4.03809 10.832C2.50657 12.2717 0 11.1749 0 9.11816V2.36523C7.76763e-06 1.06275 1.07885 0.000174674 2.40137 0H9.71094Z" fill="white"/>
<path d="M34.5986 0C35.9212 0.000175695 37 1.06275 37 2.36523V9.11816C37 11.1749 34.4934 12.2375 32.9619 10.832L25.6533 4.0791C24.0522 2.60511 25.131 0 27.2891 0H34.5986Z" fill="white"/>
</svg>
