<svg width="17" height="14" viewBox="0 0 17 14" fill="none" xmlns="http://www.w3.org/2000/svg">
<path d="M17 1.63519C16.3678 1.9125 15.6942 2.09631 14.9919 2.18556C15.7144 1.75419 16.2658 1.07631 16.5251 0.25925C15.8514 0.660875 15.1077 0.944563 14.3151 1.10288C13.6754 0.421813 12.7638 0 11.7693 0C9.83981 0 8.28644 1.56613 8.28644 3.48606C8.28644 3.76231 8.30981 4.02794 8.36719 4.28081C5.46975 4.1395 2.90594 2.75081 1.18362 0.635375C0.882937 1.15706 0.706563 1.75419 0.706563 2.397C0.706563 3.604 1.32812 4.67394 2.25462 5.29337C1.69469 5.28275 1.14537 5.12019 0.68 4.86413C0.68 4.87475 0.68 4.88856 0.68 4.90237C0.68 6.596 1.88806 8.00275 3.47225 8.32681C3.18856 8.40437 2.87937 8.44156 2.5585 8.44156C2.33537 8.44156 2.11012 8.42881 1.89869 8.38206C2.35025 9.76225 3.63163 10.7769 5.15525 10.8099C3.9695 11.7374 2.46394 12.2963 0.834063 12.2963C0.54825 12.2963 0.274125 12.2836 0 12.2485C1.54381 13.2441 3.37344 13.8125 5.3465 13.8125C11.7597 13.8125 15.266 8.5 15.266 3.89512C15.266 3.74106 15.2607 3.59231 15.2532 3.44463C15.9449 2.95375 16.5261 2.34069 17 1.63519Z" fill="#F7F7EE"/>
</svg>
