<svg width="287" height="62" viewBox="0 0 287 62" fill="none" xmlns="http://www.w3.org/2000/svg">
<path d="M287 28.0331V22.9284H280.732V14.9925L280.521 15.0582L274.634 16.88L274.518 16.9156V22.9287H265.226V19.5789C265.226 18.0191 265.57 16.8255 266.25 16.0295C266.925 15.243 267.89 14.8431 269.122 14.8431C270.007 14.8431 270.923 15.054 271.845 15.4699L272.077 15.5743V10.1984L271.968 10.1579C271.107 9.84514 269.937 9.68762 268.487 9.68762C266.658 9.68762 264.997 10.09 263.549 10.8874C262.099 11.686 260.959 12.826 260.16 14.2754C259.364 15.7231 258.96 17.3952 258.96 19.2456V22.9284H254.596V28.0331H258.96V49.5383H265.226V28.0331H274.518V41.6993C274.518 47.3276 277.143 50.1799 282.32 50.1799C283.17 50.1799 284.066 50.0791 284.98 49.8817C285.91 49.6789 286.544 49.4765 286.917 49.2603L287 49.2109V44.059L286.745 44.2294C286.405 44.4586 285.982 44.6458 285.485 44.7851C284.986 44.9269 284.57 44.998 284.247 44.998C283.035 44.998 282.137 44.6675 281.581 44.0152C281.018 43.357 280.732 42.2061 280.732 40.5961V28.0331H287ZM240.604 44.9988C238.33 44.9988 236.537 44.2362 235.274 42.734C234.003 41.2242 233.359 39.0717 233.359 36.3368C233.359 33.5152 234.003 31.3068 235.274 29.7703C236.539 28.244 238.314 27.4693 240.553 27.4693C242.726 27.4693 244.455 28.2092 245.694 29.6695C246.939 31.1375 247.571 33.3282 247.571 36.1827C247.571 39.0722 246.977 41.2918 245.805 42.7766C244.641 44.2502 242.892 44.9988 240.604 44.9988V44.9988ZM240.883 22.2874C236.544 22.2874 233.098 23.5731 230.641 26.1089C228.186 28.6449 226.941 32.1545 226.941 36.5409C226.941 40.7073 228.156 44.0584 230.553 46.4999C232.95 48.9422 236.213 50.1793 240.248 50.1793C244.454 50.1793 247.831 48.8756 250.287 46.3047C252.743 43.7367 253.987 40.2602 253.987 35.9763C253.987 31.7448 252.82 28.3686 250.516 25.9435C248.211 23.5172 244.97 22.2874 240.883 22.2874V22.2874ZM216.839 22.2874C213.888 22.2874 211.447 23.0508 209.582 24.5561C207.706 26.0704 206.754 28.0564 206.754 30.4597C206.754 31.7089 206.96 32.8185 207.364 33.7597C207.771 34.704 208.4 35.5354 209.236 36.2332C210.066 36.9253 211.347 37.6503 213.045 38.388C214.472 38.9818 215.536 39.4841 216.212 39.8801C216.872 40.2681 217.341 40.6581 217.606 41.038C217.864 41.4098 217.994 41.9186 217.994 42.5464C217.994 44.3342 216.67 45.204 213.947 45.204C212.936 45.204 211.784 44.9907 210.521 44.57C209.268 44.1558 208.085 43.5491 207.014 42.7713L206.754 42.5826V48.6833L206.849 48.7282C207.736 49.1421 208.853 49.4911 210.171 49.7657C211.486 50.0406 212.68 50.1804 213.718 50.1804C216.921 50.1804 219.499 49.4133 221.381 47.899C223.275 46.3744 224.235 44.3415 224.235 41.8551C224.235 40.0614 223.718 38.5233 222.7 37.2828C221.688 36.0524 219.933 34.9228 217.484 33.9243C215.534 33.1325 214.284 32.4751 213.769 31.9706C213.272 31.4831 213.019 30.7938 213.019 29.9208C213.019 29.147 213.331 28.527 213.97 28.025C214.615 27.5204 215.512 27.2637 216.636 27.2637C217.68 27.2637 218.748 27.4305 219.811 27.7574C220.872 28.0842 221.804 28.522 222.583 29.0574L222.838 29.2343V23.4473L222.74 23.4046C222.022 23.0932 221.076 22.8268 219.926 22.6105C218.781 22.3957 217.743 22.2874 216.839 22.2874V22.2874ZM190.421 44.9988C188.147 44.9988 186.354 44.2362 185.091 42.734C183.819 41.2242 183.176 39.0722 183.176 36.3368C183.176 33.5152 183.82 31.3068 185.092 29.7703C186.355 28.244 188.131 27.4693 190.371 27.4693C192.542 27.4693 194.272 28.2092 195.511 29.6695C196.756 31.1375 197.388 33.3282 197.388 36.1827C197.388 39.0722 196.793 41.2918 195.622 42.7766C194.458 44.2502 192.709 44.9988 190.421 44.9988V44.9988ZM190.7 22.2874C186.361 22.2874 182.914 23.5731 180.459 26.1089C178.003 28.6449 176.758 32.1545 176.758 36.5409C176.758 40.7089 177.974 44.0584 180.371 46.4999C182.768 48.9422 186.03 50.1793 190.066 50.1793C194.271 50.1793 197.649 48.8756 200.105 46.3047C202.56 43.7367 203.804 40.2602 203.804 35.9763C203.804 31.7448 202.637 28.3686 200.333 25.9435C198.027 23.5172 194.786 22.2874 190.7 22.2874V22.2874ZM167.247 27.5367V22.9284H161.058V49.5377H167.247V35.926C167.247 33.6115 167.766 31.71 168.79 30.2738C169.801 28.8547 171.148 28.1356 172.792 28.1356C173.35 28.1356 173.976 28.2285 174.653 28.4124C175.324 28.5952 175.81 28.7938 176.097 29.0027L176.357 29.1933V22.8829L176.256 22.8394C175.68 22.5917 174.865 22.4668 173.833 22.4668C172.278 22.4668 170.886 22.9722 169.694 23.9673C168.647 24.842 167.891 26.0412 167.313 27.5367H167.247ZM149.975 22.2874C147.135 22.2874 144.603 22.9031 142.449 24.117C140.29 25.3336 138.621 27.0706 137.485 29.2792C136.354 31.4826 135.78 34.0563 135.78 36.9265C135.78 39.4406 136.337 41.7478 137.437 43.7813C138.538 45.8181 140.096 47.4116 142.068 48.5168C144.038 49.6205 146.314 50.1802 148.834 50.1802C151.775 50.1802 154.287 49.5854 156.3 48.4126L156.381 48.3654V42.6309L156.121 42.823C155.209 43.4949 154.19 44.0312 153.093 44.4176C152 44.8036 151.002 44.9988 150.128 44.9988C147.699 44.9988 145.75 44.2303 144.335 42.7152C142.917 41.1981 142.197 39.0677 142.197 36.3871C142.197 33.6895 142.947 31.5045 144.425 29.8922C145.899 28.2847 147.852 27.4693 150.23 27.4693C152.264 27.4693 154.246 28.1659 156.122 29.5418L156.381 29.7324V23.6902L156.298 23.6424C155.592 23.2429 154.629 22.913 153.434 22.6628C152.244 22.4132 151.081 22.2874 149.975 22.2874V22.2874ZM131.518 22.9287H125.329V49.5377H131.518V22.9287V22.9287ZM128.486 11.593C127.468 11.593 126.579 11.9437 125.849 12.6387C125.117 13.3356 124.745 14.2131 124.745 15.2486C124.745 16.2679 125.112 17.1293 125.838 17.8077C126.559 18.4841 127.451 18.8269 128.487 18.8269C129.523 18.8269 130.417 18.4841 131.147 17.8088C131.882 17.1293 132.254 16.2681 132.254 15.2486C132.254 14.2493 131.892 13.3808 131.177 12.6668C130.463 11.9541 129.558 11.593 128.486 11.593ZM113.045 20.9654V49.5377H119.361V12.4076H110.619L99.5076 39.9868L88.7246 12.4076H79.627V49.5374H85.5624V20.9626H85.7662L97.1527 49.5377H101.632L112.841 20.9654H113.045V20.9654Z" fill="#706D6E"/>
<path d="M29.1146 29.4462H0V0.000640869H29.1146V29.4462Z" fill="#F1511B"/>
<path d="M61.2604 29.4455H32.1463V0H61.2604V29.4455Z" fill="#80CC28"/>
<path d="M29.1138 61.9681H0V32.5229H29.1138V61.9681Z" fill="#00ADEF"/>
<path d="M61.2604 61.9681H32.1463V32.5229H61.2604V61.9681Z" fill="#FBBC09"/>
</svg>
