<svg width="56" height="68" viewBox="0 0 56 68" fill="none" xmlns="http://www.w3.org/2000/svg">
<path d="M46.3673 38.1166C44.4968 28.7028 53.4321 23.1817 53.4321 23.1817C53.4321 23.1817 49.9508 18.145 44.1 16.8493C38.2521 15.5507 35.3252 17.1732 32.4041 18.39C29.4802 19.6099 28.0211 19.6099 28.0211 19.6099C23.8016 19.6099 20.717 15.1422 12.6777 17.1761C7.13915 18.5739 1.30867 24.9675 0.255239 32.5985C-0.798195 40.2322 1.47507 49.9729 5.85804 57.5221C10.241 65.0772 14.7058 67.9165 17.8748 67.9982C21.0439 68.0769 24.2072 65.7279 28.0211 65.1559C31.8381 64.5898 34.1871 66.5392 37.931 67.5926C41.6603 68.6432 42.9677 67.6685 47.2631 64.0149C51.5702 60.3614 55.4689 49.8825 55.4689 49.8825C55.4689 49.8825 48.2378 47.5362 46.3673 38.1166Z" fill="black"/>
<path d="M38.0856 10.759C42.2293 6.53665 40.8258 0 40.8258 0C40.8258 0 35.0071 1.02137 31.1084 5.07751C27.2127 9.13662 27.8576 15.5477 27.8576 15.5477C27.8576 15.5477 33.9418 14.9787 38.0856 10.759Z" fill="black"/>
</svg>
