<svg width="14" height="14" viewBox="0 0 14 14" fill="none" xmlns="http://www.w3.org/2000/svg">
<path d="M6.52148 0.198107C6.78595 -0.0660433 7.21404 -0.0660281 7.47852 0.198107L13.7959 6.51549C13.8295 6.54833 13.8595 6.5847 13.8857 6.62389C13.8988 6.64344 13.9081 6.66489 13.9189 6.68541C13.9284 6.70329 13.9394 6.72034 13.9473 6.73912C13.9553 6.75843 13.9596 6.77886 13.9658 6.79869C13.9858 6.86257 14 6.92942 14 6.99987C14 7.06998 13.9856 7.13645 13.9658 7.20006C13.9597 7.21992 13.9553 7.2403 13.9473 7.25963C13.9394 7.27844 13.9284 7.29544 13.9189 7.31334C13.9081 7.33389 13.8988 7.35528 13.8857 7.37487C13.8595 7.41412 13.8295 7.45036 13.7959 7.48326L7.47852 13.8016C7.21404 14.0658 6.78595 14.0658 6.52148 13.8016C6.25694 13.5371 6.25694 13.1082 6.52148 12.8436L11.6865 7.6776H0.677734C0.303606 7.6776 5.15404e-07 7.374 0 6.99987C0 6.62573 0.303606 6.32213 0.677734 6.32213H11.6865L6.52148 1.15611C6.25694 0.891564 6.25694 0.462658 6.52148 0.198107Z" fill="white"/>
</svg>
