<svg width="51" height="60" viewBox="0 0 51 60" fill="none" xmlns="http://www.w3.org/2000/svg">
<path d="M3.7136 19.4355C2.6798 19.4355 1.80266 19.7961 1.08164 20.5171C0.36062 21.2381 0 22.1033 0 23.1131V38.6178C0 39.6529 0.360511 40.5293 1.08164 41.2504C1.80266 41.9715 2.6798 42.3321 3.7136 42.3321C4.74664 42.3321 5.61846 41.9716 6.32831 41.2504C7.03675 40.5294 7.39194 39.6529 7.39194 38.6178V23.1131C7.39194 22.1032 7.03143 21.2381 6.3103 20.5171C5.58917 19.7961 4.72342 19.4355 3.7136 19.4355Z" fill="white"/>
<path d="M33.5694 5.51635L36.1295 0.793578C36.2976 0.480911 36.2378 0.241148 35.9497 0.0725555C35.6369 -0.0728207 35.3966 0.000843825 35.2286 0.288342L32.6327 5.04887C30.3484 4.03894 27.9325 3.53305 25.3848 3.53305C22.8366 3.53305 20.4204 4.03905 18.1371 5.04887L15.541 0.288342C15.3723 0.000843825 15.132 -0.0721697 14.82 0.0725555C14.5312 0.241908 14.4714 0.480911 14.6401 0.793578L17.2004 5.51635C14.6043 6.84025 12.5367 8.68403 10.9983 11.0517C9.45995 13.4207 8.69043 16.0095 8.69043 18.8226H42.043C42.043 16.0101 41.2734 13.4212 39.7351 11.0517C38.1966 8.68403 36.1409 6.84025 33.5694 5.51635ZM18.7678 12.3857C18.491 12.6632 18.1603 12.8013 17.7759 12.8013C17.3908 12.8013 17.0668 12.6632 16.8025 12.3857C16.5382 12.1095 16.4061 11.7801 16.4061 11.3944C16.4061 11.0101 16.5382 10.68 16.8025 10.4032C17.0668 10.1269 17.3915 9.98884 17.7759 9.98884C18.1603 9.98884 18.491 10.1269 18.7678 10.4032C19.044 10.6807 19.1828 11.0101 19.1828 11.3944C19.182 11.7795 19.0434 12.1095 18.7678 12.3857ZM33.9657 12.3857C33.7009 12.6632 33.3762 12.8013 32.9924 12.8013C32.6072 12.8013 32.2766 12.6632 32.0003 12.3857C31.7236 12.1095 31.5854 11.7801 31.5854 11.3944C31.5854 11.0101 31.7236 10.68 32.0003 10.4032C32.2766 10.1269 32.6072 9.98884 32.9924 9.98884C33.3768 9.98884 33.7008 10.1269 33.9657 10.4032C34.2302 10.6807 34.3621 11.0101 34.3621 11.3944C34.3621 11.7795 34.2301 12.1095 33.9657 12.3857Z" fill="white"/>
<path d="M8.83398 44.1336C8.83398 45.2404 9.21836 46.1773 9.98723 46.9462C10.7567 47.715 11.6937 48.0994 12.7997 48.0994H15.4681L15.5047 56.2854C15.5047 57.3191 15.8652 58.1969 16.5862 58.918C17.3072 59.6391 18.1731 59.9996 19.1823 59.9996C20.2154 59.9996 21.0931 59.6391 21.8142 58.918C22.5354 58.1969 22.8959 57.3192 22.8959 56.2854V48.1002H27.8716V56.2854C27.8716 57.3191 28.232 58.1969 28.9532 58.918C29.6743 59.6391 30.5512 59.9996 31.5851 59.9996C32.6183 59.9996 33.496 59.6391 34.2171 58.918C34.9382 58.1969 35.2986 57.3192 35.2986 56.2854V48.1002H38.0031C39.0846 48.1002 40.0095 47.7157 40.7797 46.9468C41.5485 46.178 41.9331 45.2411 41.9331 44.1343V20.119H8.83398V44.1336Z" fill="white"/>
<path d="M47.0556 19.4355C46.0457 19.4355 45.1806 19.7907 44.4595 20.4992C43.7384 21.2089 43.3779 22.0807 43.3779 23.1131V38.6178C43.3779 39.6529 43.7383 40.5293 44.4595 41.2504C45.1806 41.9716 46.0463 42.3321 47.0556 42.3321C48.0888 42.3321 48.9664 41.9716 49.6876 41.2504C50.4087 40.5293 50.7691 39.6529 50.7691 38.6178V23.1131C50.7691 22.0806 50.4087 21.2089 49.6876 20.4992C48.9664 19.7907 48.0888 19.4355 47.0556 19.4355Z" fill="white"/>
</svg>
