<svg width="20" height="20" viewBox="0 0 20 20" fill="none" xmlns="http://www.w3.org/2000/svg">
<path d="M7.79709 0.245725C9.90032 -0.229388 12.101 -0.0117472 14.0705 0.865843C14.5747 1.09061 14.8011 1.68188 14.5764 2.18616C14.3515 2.69019 13.7603 2.91667 13.2561 2.69201C11.6804 1.99006 9.92008 1.81581 8.23752 2.19592C6.55469 2.57614 5.03911 3.49086 3.91818 4.80237C2.79752 6.11379 2.13129 7.75293 2.01779 9.47424C1.90442 11.1954 2.34966 12.9071 3.2883 14.3541C4.22726 15.8014 5.60953 16.9066 7.22775 17.5045C8.84609 18.1024 10.6153 18.1617 12.2697 17.6725C13.9238 17.1832 15.3756 16.1722 16.4084 14.7906C17.3769 13.4951 17.9285 11.938 17.9944 10.3268L18.0012 10.0045V9.17737C18.0013 8.62545 18.4484 8.17762 19.0002 8.17737C19.5523 8.17737 20.0001 8.6253 20.0002 9.17737V10.0055C19.999 12.1619 19.3011 14.2608 18.01 15.9879C16.7188 17.715 14.9031 18.979 12.8352 19.5905C10.7675 20.2016 8.55692 20.1277 6.53439 19.3805C4.51189 18.6331 2.78512 17.2518 1.61154 15.443C0.437955 13.6341 -0.120104 11.494 0.0216978 9.34241C0.163588 7.19065 0.998576 5.14182 2.39963 3.50256C3.80064 1.86359 5.69394 0.720912 7.79709 0.245725Z" fill="white"/>
<path d="M18.2932 2.09826C18.6834 1.70767 19.3166 1.70805 19.7072 2.09826C20.0974 2.48838 20.0979 3.12082 19.7082 3.51135L10.7072 12.5211C10.5199 12.7084 10.2661 12.8139 10.0012 12.8141C9.73609 12.8142 9.48167 12.7085 9.29416 12.5211L6.59396 9.8219C6.20356 9.43148 6.20356 8.79727 6.59396 8.40686C6.9843 8.01694 7.61675 8.01689 8.00705 8.40686L10.0002 10.399L18.2932 2.09826Z" fill="white"/>
</svg>
