<svg width="211" height="70" viewBox="0 0 211 70" fill="none" xmlns="http://www.w3.org/2000/svg">
<path d="M90.294 36.7396C90.294 46.7838 82.4767 54.1852 72.8831 54.1852C63.2896 54.1852 55.4723 46.7838 55.4723 36.7396C55.4723 26.6247 63.2896 19.2941 72.8831 19.2941C82.4767 19.2941 90.294 26.6247 90.294 36.7396ZM82.6723 36.7396C82.6723 30.463 78.1416 26.1685 72.8831 26.1685C67.6247 26.1685 63.0939 30.463 63.0939 36.7396C63.0939 42.9534 67.6247 47.3108 72.8831 47.3108C78.1416 47.3108 82.6723 42.9455 82.6723 36.7396Z" fill="#EA4335"/>
<path d="M127.854 36.7396C127.854 46.7838 120.037 54.1852 110.443 54.1852C100.85 54.1852 93.0326 46.7838 93.0326 36.7396C93.0326 26.6325 100.85 19.2941 110.443 19.2941C120.037 19.2941 127.854 26.6247 127.854 36.7396ZM120.233 36.7396C120.233 30.463 115.702 26.1685 110.443 26.1685C105.185 26.1685 100.654 30.463 100.654 36.7396C100.654 42.9534 105.185 47.3108 110.443 47.3108C115.702 47.3108 120.233 42.9455 120.233 36.7396Z" fill="#FBBC05"/>
<path d="M163.85 20.348V51.6683C163.85 64.5519 156.291 69.8139 147.355 69.8139C138.943 69.8139 133.88 64.1586 131.97 59.5337L138.606 56.7572C139.788 59.5966 142.683 62.9473 147.347 62.9473C153.067 62.9473 156.612 59.4 156.612 52.7222V50.2131H156.346C154.64 52.329 151.353 54.1773 147.206 54.1773C138.528 54.1773 130.578 46.5793 130.578 36.8026C130.578 26.955 138.528 19.2941 147.206 19.2941C151.345 19.2941 154.632 21.1424 156.346 23.1953H156.612V20.3559H163.85V20.348ZM157.152 36.8026C157.152 30.6596 153.075 26.1685 147.887 26.1685C142.628 26.1685 138.223 30.6596 138.223 36.8026C138.223 42.8826 142.628 47.3108 147.887 47.3108C153.075 47.3108 157.152 42.8826 157.152 36.8026Z" fill="#4285F4"/>
<path d="M175.783 1.98987V53.1153H168.35V1.98987H175.783Z" fill="#34A853"/>
<path d="M204.752 42.4813L210.668 46.4455C208.758 49.2849 204.157 54.1772 196.207 54.1772C186.347 54.1772 178.984 46.5163 178.984 36.7316C178.984 26.3571 186.41 19.2861 195.354 19.2861C204.361 19.2861 208.766 26.4908 210.206 30.3842L210.996 32.3663L187.795 42.0251C189.571 45.5252 192.333 47.3107 196.207 47.3107C200.088 47.3107 202.78 45.3915 204.752 42.4813ZM186.543 36.2046L202.052 29.7314C201.199 27.5527 198.633 26.0346 195.612 26.0346C191.739 26.0346 186.347 29.4718 186.543 36.2046V36.2046Z" fill="#EA4335"/>
<path d="M27.3331 32.2012V24.7998H52.1465C52.3891 26.0897 52.5143 27.6156 52.5143 29.2673C52.5143 34.8203 51.0041 41.6869 46.1368 46.5792C41.4027 51.5344 35.3538 54.1772 27.3409 54.1772C12.4889 54.1772 0 42.0172 0 27.0886C0 12.16 12.4889 0 27.3409 0C35.5573 0 41.4105 3.24057 45.8082 7.46431L40.6123 12.687C37.4588 9.71383 33.1863 7.40139 27.3331 7.40139C16.4875 7.40139 8.00509 16.1871 8.00509 27.0886C8.00509 37.9901 16.4875 46.7758 27.3331 46.7758C34.3679 46.7758 38.3743 43.9364 40.941 41.3565C43.0225 39.2643 44.3918 36.2755 44.9318 32.1933L27.3331 32.2012Z" fill="#4285F4"/>
</svg>
