<svg width="49" height="60" viewBox="0 0 49 60" fill="none" xmlns="http://www.w3.org/2000/svg">
<path d="M40.9123 33.632C39.2619 25.3257 47.146 20.4542 47.146 20.4542C47.146 20.4542 44.0742 16.0101 38.9118 14.8668C33.7518 13.721 31.1693 15.1525 28.5919 16.2262C26.0119 17.3026 24.7245 17.3026 24.7245 17.3026C21.0014 17.3026 18.2798 13.3605 11.1862 15.1552C6.29925 16.3885 1.15471 22.0299 0.225211 28.7631C-0.70429 35.4988 1.30153 44.0935 5.16886 50.7546C9.03619 57.4208 12.9757 59.926 15.7719 59.9981C18.5681 60.0676 21.3593 57.9949 24.7245 57.4902C28.0924 56.9907 30.1651 58.7108 33.4686 59.6403C36.7591 60.5673 37.9127 59.7072 41.7028 56.4835C45.5031 53.2598 48.9431 44.0137 48.9431 44.0137C48.9431 44.0137 42.5628 41.9435 40.9123 33.632Z" fill="white"/>
<path d="M33.605 9.49327C37.2612 5.76763 36.0228 0 36.0228 0C36.0228 0 30.8886 0.901211 27.4486 4.48015C24.0112 8.06172 24.5802 13.7186 24.5802 13.7186C24.5802 13.7186 29.9487 13.2165 33.605 9.49327Z" fill="white"/>
</svg>
