<svg width="19" height="19" viewBox="0 0 19 19" fill="none" xmlns="http://www.w3.org/2000/svg">
<path d="M9.48901 2.76605e-10C9.14844 2.76605e-10 8.80811 0.0183086 8.46948 0.0548069C8.1591 0.0865101 7.85253 0.138503 7.55008 0.201593C7.49155 0.213838 7.43298 0.226757 7.37445 0.240271C5.59245 0.645992 3.96529 1.5571 2.68809 2.86434C2.56932 2.98608 2.45305 3.11143 2.33935 3.24034C-1.11075 7.20118 -0.696703 13.2089 3.26417 16.659C7.05619 19.9621 12.7641 19.7423 16.291 16.1575C16.41 16.0358 16.5262 15.9104 16.6397 15.7815C18.1623 14.0476 19.0013 11.8185 19 9.51092C19 4.25813 14.7418 -3.96287e-05 9.48901 2.76605e-10ZM3.11069 3.33989C3.16078 3.2879 3.21277 3.23812 3.26382 3.18772C3.32278 3.1297 3.38143 3.07137 3.44167 3.01525C3.49461 2.96579 3.54914 2.91824 3.60336 2.87005C3.66454 2.81584 3.72541 2.76163 3.78819 2.70932C3.84335 2.66271 3.9001 2.61801 3.95653 2.57299C4.01994 2.52227 4.08334 2.47154 4.14865 2.42272C4.20635 2.37929 4.265 2.33712 4.32397 2.29591C4.3896 2.24898 4.45554 2.2008 4.52243 2.15705C4.58235 2.11647 4.6429 2.07715 4.70377 2.03816C4.77162 1.99473 4.83978 1.95193 4.90858 1.91135C4.97052 1.87437 5.03285 1.83799 5.09562 1.80229C5.16581 1.76234 5.23627 1.72335 5.30709 1.6853C5.37049 1.6515 5.4339 1.61841 5.4973 1.58607C5.56959 1.54961 5.6425 1.51442 5.71574 1.47987C5.77915 1.44975 5.84509 1.41963 5.9104 1.3911C5.9849 1.35939 6.06035 1.32769 6.13581 1.29599C6.20143 1.26904 6.26674 1.24273 6.333 1.21736C6.40972 1.1882 6.48739 1.16093 6.56507 1.13367C6.63133 1.11052 6.69759 1.08738 6.7648 1.0655C6.84374 1.04014 6.92331 1.01668 7.0032 0.993538C7.0701 0.9742 7.13636 0.954226 7.20357 0.936156C7.22925 0.929498 7.25493 0.924108 7.28061 0.917451C6.34219 1.82864 5.64579 2.95949 5.25446 4.20761C4.50198 4.00915 3.77352 3.72881 3.08216 3.37159C3.09262 3.3605 3.1015 3.3494 3.11069 3.33989ZM2.6548 3.85031C3.41635 4.26293 4.22391 4.58432 5.06075 4.80775C4.65051 6.23423 4.43517 7.70966 4.42066 9.19389H0.619454C0.688528 7.23665 1.40427 5.35752 2.6548 3.85031ZM2.6548 15.1715C1.40435 13.6643 0.688607 11.7851 0.619454 9.82795H4.42066C4.43517 11.3122 4.65047 12.7876 5.06075 14.2141C4.22395 14.4376 3.41639 14.7589 2.6548 15.1715ZM7.20167 18.0869C7.13763 18.0708 7.07137 18.0499 7.00542 18.0305C6.92521 18.0071 6.84469 17.9836 6.76543 17.9579C6.69854 17.9364 6.63259 17.9132 6.56665 17.8901C6.48866 17.8631 6.41067 17.8355 6.33363 17.8061C6.26769 17.781 6.2027 17.7547 6.13739 17.7281C6.06162 17.6964 5.98585 17.6647 5.91071 17.633C5.84604 17.6044 5.78168 17.5751 5.71764 17.5448C5.64377 17.5099 5.57022 17.4744 5.49572 17.4377C5.43231 17.406 5.36891 17.3743 5.3055 17.3397C5.23385 17.3013 5.16284 17.262 5.09182 17.2215C5.02841 17.1863 4.96818 17.1501 4.90699 17.1133C4.83724 17.0715 4.76877 17.0284 4.70029 16.9843C4.64005 16.946 4.57981 16.907 4.52053 16.867C4.453 16.8214 4.38611 16.7738 4.31985 16.7262C4.26183 16.6847 4.20381 16.6432 4.14675 16.5994C4.08112 16.55 4.01677 16.4989 3.95273 16.4476C3.89661 16.4029 3.84081 16.3585 3.78597 16.3125C3.72256 16.2599 3.66137 16.205 3.59987 16.1505C3.54597 16.1026 3.49176 16.0554 3.43913 16.0066C3.37858 15.9502 3.31993 15.8915 3.26096 15.8335C3.20992 15.7831 3.15793 15.7333 3.10784 15.6816C3.09864 15.6718 3.08977 15.6617 3.08057 15.6521C3.7719 15.2948 4.50036 15.0143 5.25287 14.8158C5.64429 16.0639 6.34065 17.1947 7.27902 18.106C7.25334 18.0993 7.22735 18.0939 7.20167 18.0869ZM9.17202 18.3628C7.81544 18.17 6.62625 16.7541 5.87806 14.6633C6.95977 14.4211 8.06364 14.2912 9.17202 14.2756V18.3628ZM9.17202 13.6415C7.99623 13.657 6.82539 13.7966 5.67896 14.0581C5.28089 12.6827 5.0709 11.2597 5.05473 9.82795H9.17202V13.6415ZM9.17202 9.19389H5.05473C5.07086 7.76213 5.28085 6.33913 5.67896 4.96373C6.82539 5.22516 7.99627 5.36481 9.17202 5.38031V9.19389ZM9.17202 4.74625C8.0636 4.73079 6.95977 4.60085 5.87806 4.35851C6.62625 2.26769 7.81544 0.851825 9.17202 0.65907V4.74625ZM16.3233 3.85031C17.5738 5.35756 18.2895 7.23669 18.3586 9.19389H14.5574C14.5429 7.70966 14.3276 6.23423 13.9174 4.80775C14.7542 4.5842 15.5617 4.26285 16.3233 3.85031ZM11.7739 0.93457C11.8405 0.951056 11.9067 0.97198 11.9727 0.991319C12.0529 1.01478 12.1334 1.03824 12.2127 1.06392C12.2796 1.08548 12.3455 1.10862 12.4114 1.13176C12.4894 1.15871 12.5674 1.18629 12.6445 1.21578C12.7104 1.24082 12.7754 1.26714 12.8407 1.29377C12.9165 1.32547 12.9923 1.35717 13.0674 1.38888C13.1321 1.41741 13.1964 1.44678 13.2605 1.47701C13.3343 1.51189 13.4079 1.54739 13.4824 1.58417C13.5458 1.61587 13.6092 1.64758 13.6726 1.68213C13.7443 1.72049 13.8153 1.7598 13.8863 1.80038C13.9497 1.83558 14.0099 1.87172 14.0711 1.90849C14.1409 1.95034 14.2093 1.99346 14.2778 2.03752C14.3381 2.07589 14.3983 2.11488 14.4576 2.15483C14.5251 2.20048 14.5917 2.24772 14.6579 2.29527C14.7163 2.3368 14.7743 2.37865 14.8317 2.42208C14.897 2.47122 14.961 2.52227 15.0254 2.57363C15.0812 2.61801 15.1373 2.66239 15.1921 2.70868C15.2555 2.76131 15.3167 2.81615 15.3782 2.87068C15.4321 2.91856 15.4863 2.96579 15.539 3.01462C15.5995 3.07105 15.6582 3.1297 15.7171 3.18772C15.7682 3.23812 15.8202 3.2879 15.8703 3.33957C15.8795 3.3494 15.8883 3.35955 15.8975 3.36906C15.2062 3.72643 14.4777 4.00689 13.7252 4.20539C13.3331 2.95715 12.6358 1.82642 11.6965 0.915549C11.7222 0.922206 11.7482 0.927596 11.7739 0.93457ZM9.80608 0.65907C11.1627 0.851825 12.3518 2.26769 13.1 4.35851C12.0183 4.60073 10.9145 4.73067 9.80608 4.74625V0.65907ZM9.80608 5.38031C10.9819 5.36485 12.1527 5.2252 13.2991 4.96373C13.6972 6.33913 13.9072 7.76213 13.9234 9.19389H9.80608V5.38031ZM9.80608 9.82795H13.9234C13.9072 11.2597 13.6973 12.6827 13.2991 14.0581C12.1527 13.7967 10.9819 13.657 9.80608 13.6415V9.82795ZM9.80608 18.3628V14.2756C10.9145 14.291 12.0183 14.421 13.1 14.6633C12.3518 16.7541 11.1627 18.17 9.80608 18.3628ZM15.8674 15.6819C15.8173 15.7336 15.7656 15.7834 15.7146 15.8338C15.6556 15.8918 15.5967 15.9505 15.5361 16.0069C15.4835 16.056 15.4293 16.102 15.3754 16.1512C15.3139 16.2057 15.2527 16.2602 15.1899 16.3128C15.1344 16.3591 15.078 16.4038 15.0216 16.4488C14.9582 16.4996 14.8948 16.5503 14.8295 16.5991C14.7718 16.6426 14.7131 16.6847 14.6541 16.7259C14.5885 16.7729 14.5226 16.821 14.4557 16.8648C14.3958 16.9054 14.3352 16.9447 14.2743 16.9834C14.2065 17.0271 14.1381 17.0694 14.0692 17.1102C14.0058 17.1473 13.9452 17.1834 13.8828 17.2192C13.8126 17.2592 13.742 17.2982 13.671 17.3362C13.6076 17.37 13.5442 17.4031 13.4808 17.4354C13.4085 17.4719 13.3356 17.5071 13.2624 17.5417C13.199 17.5718 13.133 17.6019 13.0677 17.6304C12.9932 17.6621 12.9177 17.6938 12.8423 17.7255C12.7767 17.7522 12.7114 17.7788 12.6454 17.8038C12.5681 17.8333 12.4904 17.8609 12.4124 17.8879C12.3465 17.911 12.2805 17.9341 12.2136 17.9557C12.1344 17.9814 12.0551 18.0048 11.9743 18.028C11.908 18.0476 11.8414 18.0673 11.7745 18.0854C11.7489 18.092 11.7232 18.0974 11.6975 18.1041C12.6359 17.1929 13.3323 16.062 13.7236 14.8139C14.4761 15.0124 15.2046 15.2927 15.8959 15.6499C15.8855 15.6613 15.8766 15.6724 15.8674 15.6819ZM16.3233 15.1715C15.5618 14.7589 14.7542 14.4375 13.9174 14.2141C14.3276 12.7876 14.5429 11.3122 14.5574 9.82795H18.3586C18.2896 11.7851 17.5738 13.6643 16.3233 15.1715Z" fill="white"/>
</svg>
