<svg width="15" height="15" viewBox="0 0 15 15" fill="none" xmlns="http://www.w3.org/2000/svg">
<path d="M11.3008 4.70117C14.4246 4.70137 15 6.78104 15 9.48047V14.999L14.9961 15H11.915V10.1094C11.915 8.94395 11.8912 7.44948 10.3096 7.44922C8.70395 7.44922 8.45801 8.71566 8.45801 10.0254V14.999H5.37305V4.95312H8.33594V6.32324H8.37891C8.79043 5.53392 9.79887 4.70117 11.3008 4.70117Z" fill="#F7F7EE"/>
<path d="M3.3584 14.7764H0.223633V4.92578H3.3584V14.7764Z" fill="#F7F7EE"/>
<path d="M1.79102 0C2.77898 0 3.58116 0.79831 3.58203 1.78223C3.58203 2.76636 2.77976 3.58203 1.79102 3.58203C0.802288 3.58202 0 2.76635 0 1.78223C0.000254054 0.79832 0.802444 1.56589e-05 1.79102 0Z" fill="#F7F7EE"/>
</svg>
